<svg xmlns="http://www.w3.org/2000/svg" viewBox="0 0 64 64">
  <defs>
    <linearGradient id="bg" x1="0" y1="0" x2="1" y2="1">
      <stop offset="0%" stop-color="#1e293b"/>
      <stop offset="100%" stop-color="#0f172a"/>
    </linearGradient>
    <linearGradient id="accent" x1="0" y1="0" x2="1" y2="1">
      <stop offset="0%" stop-color="#3b82f6"/>
      <stop offset="100%" stop-color="#6366f1"/>
    </linearGradient>
  </defs>
  <!-- Background -->
  <rect width="64" height="64" rx="14" fill="url(#bg)"/>
  <!-- Edges -->
  <line x1="20" y1="20" x2="44" y2="20" stroke="#3b82f6" stroke-width="2" stroke-opacity="0.6"/>
  <line x1="20" y1="20" x2="20" y2="44" stroke="#3b82f6" stroke-width="2" stroke-opacity="0.6"/>
  <line x1="44" y1="20" x2="44" y2="44" stroke="#3b82f6" stroke-width="2" stroke-opacity="0.6"/>
  <line x1="20" y1="44" x2="44" y2="44" stroke="#3b82f6" stroke-width="2" stroke-opacity="0.6"/>
  <line x1="20" y1="20" x2="44" y2="44" stroke="#6366f1" stroke-width="1.5" stroke-opacity="0.4" stroke-dasharray="3 2"/>
  <!-- Nodes -->
  <circle cx="20" cy="20" r="6" fill="url(#accent)"/>
  <circle cx="44" cy="20" r="6" fill="#22c55e"/>
  <circle cx="20" cy="44" r="6" fill="#f59e0b"/>
  <circle cx="44" cy="44" r="6" fill="#ef4444"/>
  <!-- Center node -->
  <rect x="26" y="26" width="12" height="12" rx="3" fill="url(#accent)" fill-opacity="0.9"/>
  <line x1="32" y1="26" x2="32" y2="20" stroke="#3b82f6" stroke-width="1.5" stroke-opacity="0.5"/>
  <line x1="26" y1="32" x2="20" y2="32" stroke="#3b82f6" stroke-width="1.5" stroke-opacity="0.5"/>
  <line x1="38" y1="32" x2="44" y2="32" stroke="#3b82f6" stroke-width="1.5" stroke-opacity="0.5"/>
  <line x1="32" y1="38" x2="32" y2="44" stroke="#3b82f6" stroke-width="1.5" stroke-opacity="0.5"/>
</svg>
