<svg xmlns="http://www.w3.org/2000/svg" viewBox="0 0 80 80" fill="none">
  <path
    d="M48.692 40.6795C49.431 41.3628 49.801 42.2781 49.801 43.4276C49.801 44.678 49.351 45.6764 48.452 46.4227C47.552 47.17 46.343 47.5431 44.826 47.5431C43.627 47.5431 42.44 47.287 41.266 46.7769V45.2453C42.657 45.7054 43.843 45.9345 44.826 45.9345C45.796 45.9345 46.542 45.7174 47.065 45.2843C47.588 44.8501 47.849 44.2309 47.849 43.4276C47.849 41.883 46.874 41.1107 44.921 41.1107C44.309 41.1107 43.703 41.1427 43.103 41.2057V39.9432L47.123 35.5585H41.458V33.9889H49.247V35.5015L45.304 39.6751C45.369 39.6621 45.431 39.6561 45.496 39.6561H45.687C46.951 39.6561 47.952 39.9972 48.692 40.6795ZM37.574 40.3454C38.351 41.0727 38.74 42.074 38.74 43.3495C38.74 44.601 38.288 45.6124 37.381 46.3847C36.475 47.157 35.283 47.5431 33.803 47.5431C32.503 47.5431 31.284 47.287 30.148 46.7769V45.2453C31.564 45.7054 32.776 45.9345 33.784 45.9345C34.754 45.9345 35.497 45.7154 36.013 45.2743C36.53 44.8341 36.789 44.1999 36.789 43.3695C36.789 42.4632 36.546 41.8059 36.061 41.3978C35.576 40.9896 34.785 40.7846 33.688 40.7846C32.897 40.7846 31.909 40.8496 30.722 40.9766V39.7131L31.086 33.9889H38.071V35.5585H32.693L32.444 39.445C33.146 39.318 33.777 39.254 34.338 39.254C35.716 39.254 36.795 39.6171 37.574 40.3454ZM51.957 54.3778C47.103 55.2501 42.852 57.2269 40 58.8375C37.147 57.2269 32.896 55.2501 28.043 54.3778C26.677 54.1327 19.869 52.7111 19.869 48.7756C19.869 46.9519 20.522 45.7425 21.776 43.5826C23.274 40.9996 25.138 37.7844 25.138 33.1556C25.138 29.8474 24.271 26.6751 22.559 23.715C22.76 23.4669 22.965 23.2158 23.171 22.9627C25.707 24.2302 28.347 24.8724 31.031 24.8724C34.311 24.8724 37.325 24.0111 40 22.3115C42.674 24.0111 45.688 24.8724 48.968 24.8724C51.652 24.8724 54.293 24.2302 56.829 22.9627C57.034 23.2158 57.239 23.4669 57.44 23.715C55.728 26.6751 54.861 29.8474 54.861 33.1556C54.861 37.7844 56.725 40.9996 58.226 43.5866C59.477 45.7425 60.13 46.9519 60.13 48.7756C60.13 52.7111 53.322 54.1327 51.957 54.3778ZM56.861 33.1556C56.861 29.9974 57.752 26.9702 59.507 24.1582C59.735 23.795 59.706 23.3278 59.434 22.9957C58.926 22.3735 58.393 21.7182 57.867 21.067C57.562 20.6898 57.032 20.5858 56.606 20.8199C54.143 22.1814 51.574 22.8717 48.968 22.8717C45.824 22.8717 43.077 22.0263 40.569 20.2887C40.227 20.0516 39.772 20.0516 39.43 20.2887C36.922 22.0263 34.175 22.8717 31.031 22.8717C28.425 22.8717 25.856 22.1814 23.393 20.8199C22.968 20.5858 22.437 20.6898 22.132 21.067C21.606 21.7182 21.073 22.3735 20.565 22.9957C20.294 23.3278 20.264 23.795 20.492 24.1582C22.248 26.9702 23.138 29.9974 23.138 33.1556C23.138 37.2462 21.423 40.2023 20.045 42.5812C18.695 44.9041 17.869 46.4467 17.869 48.7756C17.869 54.1647 25.385 55.9344 27.689 56.3475C32.549 57.2209 36.793 59.2807 39.497 60.8543C39.652 60.9453 39.826 60.9903 40 60.9903C40.173 60.9903 40.347 60.9453 40.503 60.8543C43.207 59.2807 47.45 57.2209 52.31 56.3475C54.614 55.9344 62.13 54.1647 62.13 48.7756C62.13 46.4467 61.304 44.9041 59.954 42.5782C58.576 40.2023 56.861 37.2462 56.861 33.1556ZM52.994 60.157C46.863 61.2594 41.723 64.5567 40 65.7641C38.276 64.5567 33.136 61.2594 27.005 60.157C14.937 57.9892 14 50.8974 14 48.7756C14 45.2853 15.371 42.9234 16.697 40.6375C17.961 38.4597 19.268 36.2068 19.268 33.1556C19.268 28.3358 16.485 24.9315 15.112 23.5459C16.556 21.7893 20.204 17.3416 22.003 15.0237C24.729 17.5966 27.898 19.0002 31.031 19.0002C34.509 19.0002 37.385 17.5846 40 14.5645C42.614 17.5846 45.49 19.0002 48.968 19.0002C52.101 19.0002 55.27 17.5966 57.997 15.0237C59.796 17.3416 63.443 21.7893 64.887 23.5459C63.514 24.9315 60.731 28.3358 60.731 33.1556C60.731 36.2068 62.039 38.4597 63.302 40.6375C64.629 42.9234 66 45.2853 66 48.7756C66 50.8974 65.062 57.9892 52.994 60.157ZM65.032 39.6341C63.797 37.5053 62.731 35.6676 62.731 33.1556C62.731 27.8676 66.847 24.4473 66.887 24.4153C67.094 24.2472 67.226 24.0031 67.254 23.737C67.28 23.4709 67.2 23.2058 67.03 22.9997C66.963 22.9197 60.408 14.9726 58.906 12.9139C58.73 12.6728 58.457 12.5227 58.159 12.5047C57.86 12.4827 57.572 12.6017 57.368 12.8198C54.848 15.5148 51.866 16.9994 48.968 16.9994C45.764 16.9994 43.244 15.5719 40.794 12.3706C40.415 11.8765 39.585 11.8765 39.206 12.3706C36.755 15.5719 34.235 16.9994 31.031 16.9994C28.133 16.9994 25.151 15.5148 22.631 12.8198C22.427 12.6017 22.137 12.4777 21.84 12.5047C21.543 12.5227 21.269 12.6728 21.093 12.9139C19.591 14.9726 13.036 22.9197 12.969 22.9997C12.8 23.2058 12.72 23.4709 12.747 23.736C12.773 24.0011 12.904 24.2452 13.11 24.4133C13.152 24.4473 17.268 27.8676 17.268 33.1556C17.268 35.6676 16.202 37.5053 14.967 39.6341C13.576 42.031 12 44.7471 12 48.7756C12 55.4872 17.477 60.4781 26.652 62.1267C33.559 63.3682 39.334 67.7489 39.391 67.7939C39.57 67.931 39.785 68 40 68C40.214 68 40.429 67.931 40.609 67.7929C40.667 67.7489 46.422 63.3712 53.347 62.1267C62.522 60.4781 68 55.4872 68 48.7756C68 44.7471 66.423 42.031 65.032 39.6341Z"
    fill="#EEF3F7"
  />
</svg>
