<svg xmlns="http://www.w3.org/2000/svg" viewBox="0 0 80 80" fill="none">
  <g transform="translate(12 12)" fill="#EEF3F7">
    <path d="M2.396 29H0V27H2.399C2.599 21.941 4.239 17.128 7.208 13.025L8.829 14.198C6.108 17.957 4.598 22.366 4.399 27H7V29H4.396C4.582 33.662 6.093 38.097 8.829 41.876L7.208 43.049C4.224 38.926 2.583 34.085 2.396 29ZM43.01 48.828C38.898 51.805 34.072 53.445 29 53.639V56H27V53.639C21.928 53.445 17.1 51.805 12.988 48.828L14.16 47.208C17.93 49.937 22.352 51.447 27 51.639V49H29V51.639C33.648 51.446 38.069 49.936 41.838 47.208L43.01 48.828ZM12.988 7.246C17.1 4.269 21.928 2.629 27 2.436V0H29V2.436C34.072 2.629 38.898 4.27 43.01 7.246L41.838 8.866C38.069 6.138 33.648 4.628 29 4.436V7H27V4.436C22.352 4.627 17.93 6.138 14.16 8.866L12.988 7.246ZM56 27V29H53.602C53.416 34.085 51.774 38.926 48.791 43.049L47.169 41.876C49.905 38.097 51.417 33.662 51.602 29H49V27H51.599C51.4 22.366 49.89 17.957 47.169 14.198L48.791 13.025C51.759 17.128 53.399 21.941 53.599 27H56ZM42.972 11.65L50.812 3.81L52.226 5.224L44.386 13.064L42.972 11.65ZM13.026 44.424L5.186 52.264L3.772 50.85L11.612 43.01L13.026 44.424ZM15.252 16.667L0.412 1.827L1.826 0.413L16.667 15.253L15.252 16.667ZM40.707 39.293L55.586 54.173L54.172 55.587L39.292 40.708L40.707 39.293Z" />
    <path d="M19.664 28.735C19.739 28.602 19.82 28.468 19.905 28.334C21.586 25.693 21.104 22.089 20.57 19.912C22.011 20.859 23.31 22.816 23.753 23.638C23.942 23.986 24.309 24.197 24.712 24.161C25.107 24.13 25.446 23.87 25.578 23.497C27.067 19.267 26.31 16.087 25.26 14.026C26.533 14.767 27.519 15.833 28.172 17.192C29.588 20.134 29.273 24.161 27.348 27.7C24.719 32.536 25.246 37.606 25.844 40.334C24.343 39.687 23.007 38.956 21.854 38.152C18.827 36.042 17.864 31.907 19.664 28.735Z" />
    <path d="M33.094 28.398C33.029 28.807 33.221 29.214 33.579 29.422C33.936 29.629 34.386 29.596 34.709 29.336C34.79 29.271 36.43 27.917 37.224 24.642C38.181 26.034 39.182 28.843 37.85 34.003C36.532 39.108 30.28 40.544 28.049 40.897C27.51 38.964 26.417 33.599 29.106 28.655C31.014 25.145 31.52 21.176 30.564 17.901C32.374 20.027 33.901 23.373 33.094 28.398Z" />
    <path d="M17.922 27.75C15.62 31.81 16.844 37.099 20.71 39.793C22.46 41.013 24.58 42.072 27.01 42.941C27.121 42.981 27.234 43 27.347 43H27.406L27.407 42.997C27.832 42.964 37.826 42.096 39.786 34.503C42.308 24.737 37.257 21.84 37.041 21.721C36.748 21.561 36.393 21.557 36.096 21.712C35.799 21.868 35.6 22.162 35.566 22.495C35.495 23.17 35.384 23.771 35.25 24.302C34.558 16.634 28.479 13.514 27.25 12.959C25.99 11.994 24.458 11.331 22.682 11.016C22.236 10.935 21.794 11.168 21.604 11.578C21.412 11.987 21.521 12.477 21.867 12.768C22.017 12.895 25.133 15.597 24.244 20.739C23.083 19.216 21.235 17.38 19.061 17.38C18.731 17.38 18.423 17.543 18.237 17.815C18.05 18.087 18.01 18.434 18.128 18.741C18.15 18.795 20.188 24.166 18.217 27.261C18.113 27.425 18.014 27.589 17.922 27.75Z" />
  </g>
</svg>
